<svg xmlns="http://www.w3.org/2000/svg" width="256" height="256" viewBox="0 0 256 256">
  <g fill="none" fill-rule="evenodd">
    <!-- Document frame -->
    <path fill="#E74C3C" fill-rule="nonzero" d="M32 8h192v236.3H32V8zm14.77 221.53h162.46V22.77H46.77v206.76z"/>
    <!-- Advent Calendar icon inside: 4x6 grid of doors -->
    <g fill="#E74C3C" fill-rule="nonzero" transform="translate(60 50)">
      <!-- Row 1 -->
      <rect width="16" height="16" rx="2"/>
      <rect x="20" width="16" height="16" rx="2"/>
      <rect x="40" width="16" height="16" rx="2"/>
      <rect x="60" width="16" height="16" rx="2"/>
      <rect x="80" width="16" height="16" rx="2"/>
      <rect x="100" width="16" height="16" rx="2"/>
      <!-- Row 2 -->
      <rect y="20" width="16" height="16" rx="2"/>
      <rect x="20" y="20" width="16" height="16" rx="2"/>
      <rect x="40" y="20" width="16" height="16" rx="2"/>
      <rect x="60" y="20" width="16" height="16" rx="2"/>
      <rect x="80" y="20" width="16" height="16" rx="2"/>
      <rect x="100" y="20" width="16" height="16" rx="2"/>
      <!-- Row 3 -->
      <rect y="40" width="16" height="16" rx="2"/>
      <rect x="20" y="40" width="16" height="16" rx="2"/>
      <rect x="40" y="40" width="16" height="16" rx="2"/>
      <rect x="60" y="40" width="16" height="16" rx="2"/>
      <rect x="80" y="40" width="16" height="16" rx="2"/>
      <rect x="100" y="40" width="16" height="16" rx="2"/>
      <!-- Row 4 -->
      <rect y="60" width="16" height="16" rx="2"/>
      <rect x="20" y="60" width="16" height="16" rx="2"/>
      <rect x="40" y="60" width="16" height="16" rx="2"/>
      <rect x="60" y="60" width="16" height="16" rx="2"/>
      <rect x="80" y="60" width="16" height="16" rx="2"/>
      <rect x="100" y="60" width="16" height="16" rx="2"/>
      <!-- Star on top (December 24) -->
      <path d="M58 90 L63 102 L76 102 L66 110 L70 122 L58 114 L46 122 L50 110 L40 102 L53 102 Z" fill="#E74C3C"/>
    </g>
  </g>
</svg>
